# xmcd
#
# Track frame offsets: 
#        150
#        13108
#        27890
#        42233
#        55622
#        67748
#        80420
#        93527
#        103681
#        116440
#        126988
#        141666
#        154459
#        165313
#        177986
#        190727
#        204580
#        215473
#        228407
#        242561
#        254910
#        266523
#        278679
#        290848
#        301611
#        313876
#
# Disc length: 4344 seconds
#
# Revision: 0
# Processed by: cddbd v1.5.2PL0 Copyright (c) Steve Scherf et al.
# Submitted via: ExactAudioCopy v0.99pb5
#
DISCID=7a10f61a
DTITLE=Various Artist - 100 Years Of The Blues - From Mystical Gods To Modern
DTITLE=Day - Disc 2
DYEAR=2011
DGENRE=Blues
TTITLE0=Louis Jordan and His Tympany Five - Ain't That Just Like A Woman
TTITLE1=T-Bone Walker - I Got A Break Baby
TTITLE2=Bea Booze - See See Rider Blues
TTITLE3=Washboard Sam - Red River Dam Blues
TTITLE4=Bob Wills And His Texas Playboys - Ida Red Likes To Boogie
TTITLE5=Jackie Brenston And His Delta Cats - Rocket 88
TTITLE6=Arthur 'Big Boy' Crudup - That's All Right
TTITLE7=Elmore James - Talk To Me Babye
TTITLE8=Amos Milburn - Chicken Shack Boogie
TTITLE9=The Jimmy Cotton Blues Quartet - Cotton Crop Blues
TTITLE10=Chuck Berry - Reelin' And Rockin'
TTITLE11=Bo Diddley - Pretty Thing
TTITLE12=Poppy Hop And His Orchestra - A Good Woman Is Hard To Find
TTITLE13=Jimmy Reed - Big Boss Man
TTITLE14=Jimmy Rodgers - Rock This House
TTITLE15=Dina Washington - Salty Papa Blues
TTITLE16=Etta James - Don't Cry Baby
TTITLE17=Big Bill Broonzy - Swing Low Sweet Chariot
TTITLE18=Willie Mabon - I Don't Know
TTITLE19=Little Walter - Juke
TTITLE20=Sonny Boy Williamson - Don't Start Me Talking
TTITLE21=Memphis Slim - Mother Earth
TTITLE22=Bobby Bland - I Pity The Fool
TTITLE23=Otis Rush - I'm Satisfied
TTITLE24=Howlin' Wolf - Spoonful
TTITLE25=John Lee Hooker - Boom Boom
EXTD=
EXTT0=
EXTT1=
EXTT2=
EXTT3=
EXTT4=
EXTT5=
EXTT6=
EXTT7=
EXTT8=
EXTT9=
EXTT10=
EXTT11=
EXTT12=
EXTT13=
EXTT14=
EXTT15=
EXTT16=
EXTT17=
EXTT18=
EXTT19=
EXTT20=
EXTT21=
EXTT22=
EXTT23=
EXTT24=
EXTT25=
PLAYORDER=
